<mxfile host="app.diagrams.net" modified="2022-01-24T13:22:41.345Z" agent="5.0 (Windows NT 10.0; Win64; x64) AppleWebKit/537.36 (KHTML, like Gecko) Chrome/97.0.4692.99 Safari/537.36" etag="qVHUA4ID-5od44vxb5TV" version="16.4.5" type="github">
  <diagram id="t7iMz_v3nmqHoSBbqk-X" name="ModeloER">
    <mxGraphModel dx="2310" dy="787" grid="1" gridSize="10" guides="1" tooltips="1" connect="1" arrows="1" fold="1" page="1" pageScale="1" pageWidth="827" pageHeight="1169" math="0" shadow="0">
      <root>
        <mxCell id="0" />
        <mxCell id="1" parent="0" />
        <mxCell id="szS_IiKJX-dhthdG4j-6-44" value="" style="endArrow=none;html=1;rounded=0;entryX=0.25;entryY=0;entryDx=0;entryDy=0;" parent="1" source="szS_IiKJX-dhthdG4j-6-2" target="szS_IiKJX-dhthdG4j-6-23" edge="1">
          <mxGeometry width="50" height="50" relative="1" as="geometry">
            <mxPoint x="450" y="490" as="sourcePoint" />
            <mxPoint x="500" y="440" as="targetPoint" />
          </mxGeometry>
        </mxCell>
        <mxCell id="szS_IiKJX-dhthdG4j-6-1" value="&lt;blockquote style=&quot;margin: 0 0 0 40px ; border: none ; padding: 0px&quot;&gt;&lt;b&gt;MESA&lt;/b&gt;&lt;/blockquote&gt;&lt;blockquote style=&quot;margin: 0px 0px 0px 40px ; border: none ; padding: 0px&quot;&gt;#nombre ID&lt;/blockquote&gt;&lt;blockquote style=&quot;margin: 0px 0px 0px 40px ; border: none ; padding: 0px&quot;&gt;*tamaño&lt;/blockquote&gt;&lt;blockquote style=&quot;margin: 0px 0px 0px 40px ; border: none ; padding: 0px&quot;&gt;*ubicación&lt;/blockquote&gt;" style="rounded=1;whiteSpace=wrap;html=1;align=left;" parent="1" vertex="1">
          <mxGeometry x="-40" y="70" width="190" height="100" as="geometry" />
        </mxCell>
        <mxCell id="szS_IiKJX-dhthdG4j-6-2" value="&lt;blockquote style=&quot;margin: 0 0 0 40px ; border: none ; padding: 0px&quot;&gt;&lt;b&gt;CLIENTE&lt;br&gt;&lt;/b&gt;#cédula&lt;br&gt;*nombre&lt;br&gt;*cantidad personas&lt;/blockquote&gt;" style="rounded=1;whiteSpace=wrap;html=1;align=left;" parent="1" vertex="1">
          <mxGeometry x="150" y="180" width="180" height="120" as="geometry" />
        </mxCell>
        <mxCell id="szS_IiKJX-dhthdG4j-6-14" value="" style="group;allowArrows=0;" parent="1" vertex="1" connectable="0">
          <mxGeometry x="860" width="210" height="430" as="geometry" />
        </mxCell>
        <mxCell id="szS_IiKJX-dhthdG4j-6-9" value="" style="rounded=1;whiteSpace=wrap;html=1;" parent="szS_IiKJX-dhthdG4j-6-14" vertex="1">
          <mxGeometry width="210" height="430" as="geometry" />
        </mxCell>
        <mxCell id="szS_IiKJX-dhthdG4j-6-8" value="&lt;blockquote style=&quot;margin: 0px 0px 0px 40px ; border: none ; padding: 0px&quot;&gt;&lt;/blockquote&gt;&lt;b&gt;&lt;div style=&quot;text-align: left&quot;&gt;&lt;b&gt;EMPLEADO&lt;/b&gt;&lt;/div&gt;&lt;/b&gt;&lt;blockquote style=&quot;margin: 0px 0px 0px 40px ; border: none ; padding: 0px&quot;&gt;&lt;/blockquote&gt;&lt;span&gt;&lt;div style=&quot;text-align: left&quot;&gt;&lt;span&gt;#cédula&lt;/span&gt;&lt;/div&gt;&lt;/span&gt;&lt;blockquote style=&quot;margin: 0px 0px 0px 40px ; border: none ; padding: 0px&quot;&gt;&lt;/blockquote&gt;&lt;span&gt;&lt;div style=&quot;text-align: left&quot;&gt;&lt;span&gt;*carnet&lt;/span&gt;&lt;/div&gt;&lt;/span&gt;&lt;blockquote style=&quot;margin: 0px 0px 0px 40px ; border: none ; padding: 0px&quot;&gt;&lt;/blockquote&gt;&lt;span&gt;&lt;div style=&quot;text-align: left&quot;&gt;&lt;span&gt;*nombre&lt;/span&gt;&lt;/div&gt;&lt;/span&gt;&lt;div style=&quot;text-align: left&quot;&gt;&lt;span&gt;*salario&lt;/span&gt;&lt;/div&gt;&lt;blockquote style=&quot;text-align: left ; margin: 0px 0px 0px 40px ; border: none ; padding: 0px&quot;&gt;&lt;br&gt;&lt;/blockquote&gt;" style="text;html=1;strokeColor=none;fillColor=none;align=center;verticalAlign=middle;whiteSpace=wrap;rounded=0;" parent="szS_IiKJX-dhthdG4j-6-14" vertex="1">
          <mxGeometry x="40" y="60" width="80" height="90" as="geometry" />
        </mxCell>
        <mxCell id="szS_IiKJX-dhthdG4j-6-11" value="&lt;b&gt;MESERO&lt;/b&gt;" style="rounded=0;whiteSpace=wrap;html=1;align=left;" parent="szS_IiKJX-dhthdG4j-6-14" vertex="1">
          <mxGeometry x="40" y="180" width="110" height="70" as="geometry" />
        </mxCell>
        <mxCell id="szS_IiKJX-dhthdG4j-6-12" value="&lt;b&gt;CHEF&lt;/b&gt;" style="rounded=0;whiteSpace=wrap;html=1;align=left;" parent="szS_IiKJX-dhthdG4j-6-14" vertex="1">
          <mxGeometry x="40" y="300" width="110" height="30" as="geometry" />
        </mxCell>
        <mxCell id="szS_IiKJX-dhthdG4j-6-13" value="&lt;b&gt;BARTENDER&lt;/b&gt;" style="rounded=0;whiteSpace=wrap;html=1;align=left;" parent="szS_IiKJX-dhthdG4j-6-14" vertex="1">
          <mxGeometry x="40" y="360" width="110" height="30" as="geometry" />
        </mxCell>
        <mxCell id="szS_IiKJX-dhthdG4j-6-22" value="" style="group" parent="1" vertex="1" connectable="0">
          <mxGeometry x="50" y="390" width="130" height="80" as="geometry" />
        </mxCell>
        <mxCell id="szS_IiKJX-dhthdG4j-6-21" value="" style="rounded=1;whiteSpace=wrap;html=1;" parent="szS_IiKJX-dhthdG4j-6-22" vertex="1">
          <mxGeometry width="130" height="80" as="geometry" />
        </mxCell>
        <mxCell id="szS_IiKJX-dhthdG4j-6-20" value="&lt;b&gt;REPRODUCTOR&lt;/b&gt;&lt;br&gt;*lista reproducción&lt;br&gt;*plataforma" style="text;html=1;strokeColor=none;fillColor=none;align=left;verticalAlign=middle;whiteSpace=wrap;rounded=0;" parent="szS_IiKJX-dhthdG4j-6-22" vertex="1">
          <mxGeometry x="10" y="5" width="110" height="70" as="geometry" />
        </mxCell>
        <mxCell id="szS_IiKJX-dhthdG4j-6-25" value="" style="group" parent="1" vertex="1" connectable="0">
          <mxGeometry x="440" y="420" width="140" height="80" as="geometry" />
        </mxCell>
        <mxCell id="szS_IiKJX-dhthdG4j-6-24" value="" style="rounded=1;whiteSpace=wrap;html=1;" parent="szS_IiKJX-dhthdG4j-6-25" vertex="1">
          <mxGeometry width="140" height="80" as="geometry" />
        </mxCell>
        <mxCell id="szS_IiKJX-dhthdG4j-6-23" value="&lt;div&gt;&lt;b&gt;ORDEN&lt;/b&gt;&lt;/div&gt;&lt;div&gt;#código&lt;/div&gt;&lt;div&gt;*fecha&lt;/div&gt;&lt;div&gt;*precio&lt;/div&gt;" style="text;html=1;strokeColor=none;fillColor=none;align=left;verticalAlign=middle;whiteSpace=wrap;rounded=0;" parent="szS_IiKJX-dhthdG4j-6-25" vertex="1">
          <mxGeometry x="10" y="5" width="120" height="70" as="geometry" />
        </mxCell>
        <mxCell id="szS_IiKJX-dhthdG4j-6-28" value="" style="group" parent="1" vertex="1" connectable="0">
          <mxGeometry x="440" y="780" width="170" height="120" as="geometry" />
        </mxCell>
        <mxCell id="szS_IiKJX-dhthdG4j-6-27" value="" style="rounded=1;whiteSpace=wrap;html=1;" parent="szS_IiKJX-dhthdG4j-6-28" vertex="1">
          <mxGeometry width="170" height="120" as="geometry" />
        </mxCell>
        <mxCell id="szS_IiKJX-dhthdG4j-6-26" value="&lt;b&gt;ALCOHOL&lt;/b&gt;&lt;br&gt;#nombre&lt;br&gt;*tipo&lt;br&gt;*precio&lt;br&gt;*país de origen&lt;br&gt;0 Años de añejo" style="text;html=1;strokeColor=none;fillColor=none;align=left;verticalAlign=middle;whiteSpace=wrap;rounded=0;" parent="szS_IiKJX-dhthdG4j-6-28" vertex="1">
          <mxGeometry x="15" y="10" width="140" height="100" as="geometry" />
        </mxCell>
        <mxCell id="szS_IiKJX-dhthdG4j-6-31" value="" style="group" parent="1" vertex="1" connectable="0">
          <mxGeometry x="130" y="600" width="180" height="115" as="geometry" />
        </mxCell>
        <mxCell id="szS_IiKJX-dhthdG4j-6-30" value="" style="rounded=1;whiteSpace=wrap;html=1;" parent="szS_IiKJX-dhthdG4j-6-31" vertex="1">
          <mxGeometry width="180" height="115" as="geometry" />
        </mxCell>
        <mxCell id="szS_IiKJX-dhthdG4j-6-29" value="&lt;b&gt;CANCIÓN&lt;/b&gt;&lt;br&gt;#nombre&lt;br&gt;*álbum&lt;br&gt;*genero&lt;br&gt;0 imagen álbum" style="text;html=1;strokeColor=none;fillColor=none;align=left;verticalAlign=middle;whiteSpace=wrap;rounded=0;" parent="szS_IiKJX-dhthdG4j-6-31" vertex="1">
          <mxGeometry x="10" y="12.5" width="160" height="90" as="geometry" />
        </mxCell>
        <mxCell id="szS_IiKJX-dhthdG4j-6-34" value="" style="group" parent="1" vertex="1" connectable="0">
          <mxGeometry x="130" y="840" width="180" height="102.5" as="geometry" />
        </mxCell>
        <mxCell id="szS_IiKJX-dhthdG4j-6-33" value="" style="rounded=1;whiteSpace=wrap;html=1;" parent="szS_IiKJX-dhthdG4j-6-34" vertex="1">
          <mxGeometry width="180" height="102.5" as="geometry" />
        </mxCell>
        <mxCell id="szS_IiKJX-dhthdG4j-6-32" value="&lt;div&gt;&lt;b&gt;ARTISTA&lt;/b&gt;&lt;/div&gt;&lt;div&gt;#nombre artistico&lt;/div&gt;&lt;div&gt;*género&lt;/div&gt;&lt;div&gt;0 historia autor&lt;/div&gt;&lt;div&gt;0 fecha de nacimiento&lt;/div&gt;" style="text;html=1;strokeColor=none;fillColor=none;align=left;verticalAlign=middle;whiteSpace=wrap;rounded=0;" parent="szS_IiKJX-dhthdG4j-6-34" vertex="1">
          <mxGeometry x="15" y="11.25" width="150" height="80" as="geometry" />
        </mxCell>
        <mxCell id="szS_IiKJX-dhthdG4j-6-37" value="" style="endArrow=none;dashed=1;html=1;rounded=0;exitX=1;exitY=0.5;exitDx=0;exitDy=0;" parent="1" source="szS_IiKJX-dhthdG4j-6-1" edge="1">
          <mxGeometry width="50" height="50" relative="1" as="geometry">
            <mxPoint x="-120" y="660" as="sourcePoint" />
            <mxPoint x="240" y="120" as="targetPoint" />
          </mxGeometry>
        </mxCell>
        <mxCell id="szS_IiKJX-dhthdG4j-6-39" value="" style="endArrow=none;html=1;rounded=0;" parent="1" edge="1">
          <mxGeometry width="50" height="50" relative="1" as="geometry">
            <mxPoint x="240" y="120" as="sourcePoint" />
            <mxPoint x="240" y="180" as="targetPoint" />
          </mxGeometry>
        </mxCell>
        <mxCell id="szS_IiKJX-dhthdG4j-6-40" value="" style="endArrow=none;dashed=1;html=1;rounded=0;entryX=0.385;entryY=-0.013;entryDx=0;entryDy=0;entryPerimeter=0;" parent="1" target="szS_IiKJX-dhthdG4j-6-30" edge="1">
          <mxGeometry width="50" height="50" relative="1" as="geometry">
            <mxPoint x="200" y="300" as="sourcePoint" />
            <mxPoint x="200" y="460" as="targetPoint" />
          </mxGeometry>
        </mxCell>
        <mxCell id="szS_IiKJX-dhthdG4j-6-17" value="" style="group" parent="1" vertex="1" connectable="0">
          <mxGeometry x="640" y="790" width="170" height="100" as="geometry" />
        </mxCell>
        <mxCell id="szS_IiKJX-dhthdG4j-6-15" value="" style="rounded=1;whiteSpace=wrap;html=1;arcSize=15;" parent="szS_IiKJX-dhthdG4j-6-17" vertex="1">
          <mxGeometry width="170" height="100" as="geometry" />
        </mxCell>
        <mxCell id="szS_IiKJX-dhthdG4j-6-16" value="&lt;b&gt;COMIDA&lt;/b&gt;&lt;br&gt;#nombre&lt;br&gt;*tipo&lt;br&gt;*precio" style="text;html=1;strokeColor=none;fillColor=none;align=left;verticalAlign=middle;whiteSpace=wrap;rounded=0;" parent="szS_IiKJX-dhthdG4j-6-17" vertex="1">
          <mxGeometry x="20" y="10" width="130" height="80" as="geometry" />
        </mxCell>
        <mxCell id="szS_IiKJX-dhthdG4j-6-50" value="" style="endArrow=none;html=1;rounded=0;" parent="1" edge="1">
          <mxGeometry width="50" height="50" relative="1" as="geometry">
            <mxPoint x="510" y="200" as="sourcePoint" />
            <mxPoint x="900" y="200" as="targetPoint" />
          </mxGeometry>
        </mxCell>
        <mxCell id="szS_IiKJX-dhthdG4j-6-51" value="" style="endArrow=none;html=1;rounded=0;entryX=0.5;entryY=0;entryDx=0;entryDy=0;exitX=0.5;exitY=1;exitDx=0;exitDy=0;" parent="1" source="szS_IiKJX-dhthdG4j-6-30" target="szS_IiKJX-dhthdG4j-6-33" edge="1">
          <mxGeometry width="50" height="50" relative="1" as="geometry">
            <mxPoint x="310" y="656" as="sourcePoint" />
            <mxPoint x="410" y="656" as="targetPoint" />
          </mxGeometry>
        </mxCell>
        <mxCell id="szS_IiKJX-dhthdG4j-6-56" value="" style="endArrow=none;dashed=1;html=1;rounded=0;entryX=0.25;entryY=0;entryDx=0;entryDy=0;exitX=0.295;exitY=0.992;exitDx=0;exitDy=0;exitPerimeter=0;" parent="1" source="szS_IiKJX-dhthdG4j-6-24" target="szS_IiKJX-dhthdG4j-6-27" edge="1">
          <mxGeometry width="50" height="50" relative="1" as="geometry">
            <mxPoint x="560" y="500" as="sourcePoint" />
            <mxPoint x="810" y="790" as="targetPoint" />
          </mxGeometry>
        </mxCell>
        <mxCell id="szS_IiKJX-dhthdG4j-6-63" value="" style="endArrow=none;html=1;curved=1;" parent="1" edge="1">
          <mxGeometry width="50" height="50" relative="1" as="geometry">
            <mxPoint x="130" y="580" as="sourcePoint" />
            <mxPoint x="230" y="580" as="targetPoint" />
            <Array as="points">
              <mxPoint x="180" y="550" />
            </Array>
          </mxGeometry>
        </mxCell>
        <mxCell id="szS_IiKJX-dhthdG4j-6-68" value="" style="shape=image;html=1;verticalAlign=top;verticalLabelPosition=bottom;labelBackgroundColor=#ffffff;imageAspect=0;aspect=fixed;image=https://cdn4.iconfinder.com/data/icons/essential-app-2/16/record-round-circle-dot-128.png;connectable=0;allowArrows=0;" parent="1" vertex="1">
          <mxGeometry x="130" y="550" as="geometry" />
        </mxCell>
        <mxCell id="szS_IiKJX-dhthdG4j-6-71" value="" style="shape=ellipse;html=1;fillColor=#000000;strokeWidth=2;verticalLabelPosition=bottom;verticalAlignment=top;perimeter=ellipsePerimeter;connectable=0;allowArrows=0;" parent="1" vertex="1">
          <mxGeometry x="150" y="560" width="20" height="20" as="geometry" />
        </mxCell>
        <mxCell id="szS_IiKJX-dhthdG4j-6-72" value="" style="shape=ellipse;html=1;fillColor=#000000;strokeWidth=2;verticalLabelPosition=bottom;verticalAlignment=top;perimeter=ellipsePerimeter;connectable=0;allowArrows=0;" parent="1" vertex="1">
          <mxGeometry x="190" y="560" width="20" height="20" as="geometry" />
        </mxCell>
        <mxCell id="szS_IiKJX-dhthdG4j-6-76" value="" style="endArrow=none;dashed=1;html=1;curved=1;entryX=0.912;entryY=1.026;entryDx=0;entryDy=0;entryPerimeter=0;exitX=0.25;exitY=0;exitDx=0;exitDy=0;" parent="1" source="szS_IiKJX-dhthdG4j-6-15" target="szS_IiKJX-dhthdG4j-6-24" edge="1">
          <mxGeometry width="50" height="50" relative="1" as="geometry">
            <mxPoint x="840" y="600" as="sourcePoint" />
            <mxPoint x="580" y="500" as="targetPoint" />
          </mxGeometry>
        </mxCell>
        <mxCell id="szS_IiKJX-dhthdG4j-6-79" value="" style="endArrow=none;html=1;curved=1;" parent="1" edge="1">
          <mxGeometry width="50" height="50" relative="1" as="geometry">
            <mxPoint x="510" y="420" as="sourcePoint" />
            <mxPoint x="510" y="200" as="targetPoint" />
          </mxGeometry>
        </mxCell>
        <mxCell id="szS_IiKJX-dhthdG4j-6-80" value="" style="endArrow=none;html=1;curved=1;entryX=0;entryY=0.75;entryDx=0;entryDy=0;" parent="1" target="szS_IiKJX-dhthdG4j-6-11" edge="1">
          <mxGeometry width="50" height="50" relative="1" as="geometry">
            <mxPoint x="560" y="232" as="sourcePoint" />
            <mxPoint x="590" y="390" as="targetPoint" />
          </mxGeometry>
        </mxCell>
        <mxCell id="szS_IiKJX-dhthdG4j-6-81" value="" style="endArrow=none;html=1;curved=1;exitX=0.85;exitY=-0.023;exitDx=0;exitDy=0;exitPerimeter=0;" parent="1" source="szS_IiKJX-dhthdG4j-6-24" edge="1">
          <mxGeometry width="50" height="50" relative="1" as="geometry">
            <mxPoint x="560" y="410" as="sourcePoint" />
            <mxPoint x="560" y="230" as="targetPoint" />
          </mxGeometry>
        </mxCell>
        <mxCell id="szS_IiKJX-dhthdG4j-6-82" value="" style="endArrow=none;html=1;curved=1;exitX=0.111;exitY=0;exitDx=0;exitDy=0;exitPerimeter=0;" parent="1" source="szS_IiKJX-dhthdG4j-6-30" edge="1">
          <mxGeometry width="50" height="50" relative="1" as="geometry">
            <mxPoint x="80" y="610" as="sourcePoint" />
            <mxPoint x="160" y="590" as="targetPoint" />
          </mxGeometry>
        </mxCell>
        <mxCell id="szS_IiKJX-dhthdG4j-6-83" value="" style="endArrow=none;html=1;curved=1;" parent="1" edge="1">
          <mxGeometry width="50" height="50" relative="1" as="geometry">
            <mxPoint x="160" y="590" as="sourcePoint" />
            <mxPoint x="170" y="600" as="targetPoint" />
          </mxGeometry>
        </mxCell>
        <mxCell id="szS_IiKJX-dhthdG4j-6-85" value="" style="endArrow=none;dashed=1;html=1;curved=1;exitX=0.167;exitY=0;exitDx=0;exitDy=0;exitPerimeter=0;" parent="1" source="szS_IiKJX-dhthdG4j-6-30" edge="1">
          <mxGeometry width="50" height="50" relative="1" as="geometry">
            <mxPoint x="160" y="520" as="sourcePoint" />
            <mxPoint x="160" y="470" as="targetPoint" />
          </mxGeometry>
        </mxCell>
        <mxCell id="szS_IiKJX-dhthdG4j-6-86" value="" style="endArrow=none;html=1;curved=1;exitX=0.326;exitY=-0.005;exitDx=0;exitDy=0;exitPerimeter=0;" parent="1" source="szS_IiKJX-dhthdG4j-6-30" edge="1">
          <mxGeometry width="50" height="50" relative="1" as="geometry">
            <mxPoint x="130" y="520" as="sourcePoint" />
            <mxPoint x="200" y="590" as="targetPoint" />
          </mxGeometry>
        </mxCell>
        <mxCell id="szS_IiKJX-dhthdG4j-6-87" value="" style="endArrow=none;html=1;curved=1;exitX=0.446;exitY=0.003;exitDx=0;exitDy=0;exitPerimeter=0;" parent="1" source="szS_IiKJX-dhthdG4j-6-30" edge="1">
          <mxGeometry width="50" height="50" relative="1" as="geometry">
            <mxPoint x="250" y="580" as="sourcePoint" />
            <mxPoint x="200" y="590" as="targetPoint" />
          </mxGeometry>
        </mxCell>
        <mxCell id="szS_IiKJX-dhthdG4j-6-88" value="en la lista de reproducción de" style="text;html=1;strokeColor=none;fillColor=none;align=center;verticalAlign=middle;whiteSpace=wrap;rounded=0;" parent="1" vertex="1">
          <mxGeometry x="60" y="550" width="70" height="50" as="geometry" />
        </mxCell>
        <mxCell id="szS_IiKJX-dhthdG4j-6-90" value="pedida por" style="text;html=1;strokeColor=none;fillColor=none;align=center;verticalAlign=middle;whiteSpace=wrap;rounded=0;" parent="1" vertex="1">
          <mxGeometry x="230" y="570" width="60" height="30" as="geometry" />
        </mxCell>
        <mxCell id="szS_IiKJX-dhthdG4j-6-91" value="reproduciendo desde su lista" style="text;html=1;strokeColor=none;fillColor=none;align=center;verticalAlign=middle;whiteSpace=wrap;rounded=0;" parent="1" vertex="1">
          <mxGeometry x="80" y="470" width="60" height="30" as="geometry" />
        </mxCell>
        <mxCell id="szS_IiKJX-dhthdG4j-6-93" value="quien pidió" style="text;html=1;strokeColor=none;fillColor=none;align=center;verticalAlign=middle;whiteSpace=wrap;rounded=0;" parent="1" vertex="1">
          <mxGeometry x="200" y="310" width="60" height="30" as="geometry" />
        </mxCell>
        <mxCell id="szS_IiKJX-dhthdG4j-6-95" value="quien pidió" style="text;html=1;strokeColor=none;fillColor=none;align=center;verticalAlign=middle;whiteSpace=wrap;rounded=0;rotation=30;" parent="1" vertex="1">
          <mxGeometry x="320" y="280" width="60" height="30" as="geometry" />
        </mxCell>
        <mxCell id="szS_IiKJX-dhthdG4j-6-97" value="pedida por" style="text;html=1;strokeColor=none;fillColor=none;align=center;verticalAlign=middle;whiteSpace=wrap;rounded=0;rotation=40;" parent="1" vertex="1">
          <mxGeometry x="380" y="390" width="60" height="30" as="geometry" />
        </mxCell>
        <mxCell id="szS_IiKJX-dhthdG4j-6-98" value="tomada por" style="text;html=1;strokeColor=none;fillColor=none;align=center;verticalAlign=middle;whiteSpace=wrap;rounded=0;rotation=-90;" parent="1" vertex="1">
          <mxGeometry x="460" y="360" width="60" height="30" as="geometry" />
        </mxCell>
        <mxCell id="szS_IiKJX-dhthdG4j-6-102" value="quien toma" style="text;html=1;strokeColor=none;fillColor=none;align=center;verticalAlign=middle;whiteSpace=wrap;rounded=0;" parent="1" vertex="1">
          <mxGeometry x="760" y="180" width="130" height="20" as="geometry" />
        </mxCell>
        <mxCell id="szS_IiKJX-dhthdG4j-6-103" value="quien entrega" style="text;html=1;strokeColor=none;fillColor=none;align=center;verticalAlign=middle;whiteSpace=wrap;rounded=0;" parent="1" vertex="1">
          <mxGeometry x="770" y="240" width="90" height="30" as="geometry" />
        </mxCell>
        <mxCell id="szS_IiKJX-dhthdG4j-6-104" value="entregada por" style="text;html=1;strokeColor=none;fillColor=none;align=center;verticalAlign=middle;whiteSpace=wrap;rounded=0;rotation=-90;" parent="1" vertex="1">
          <mxGeometry x="550" y="360" width="60" height="30" as="geometry" />
        </mxCell>
        <mxCell id="szS_IiKJX-dhthdG4j-6-105" value="" style="endArrow=none;html=1;entryX=0.57;entryY=0.004;entryDx=0;entryDy=0;entryPerimeter=0;" parent="1" target="szS_IiKJX-dhthdG4j-6-24" edge="1">
          <mxGeometry width="50" height="50" relative="1" as="geometry">
            <mxPoint x="510" y="410" as="sourcePoint" />
            <mxPoint x="630" y="360" as="targetPoint" />
          </mxGeometry>
        </mxCell>
        <mxCell id="szS_IiKJX-dhthdG4j-6-106" value="" style="endArrow=none;html=1;entryX=0.429;entryY=0;entryDx=0;entryDy=0;entryPerimeter=0;" parent="1" target="szS_IiKJX-dhthdG4j-6-24" edge="1">
          <mxGeometry width="50" height="50" relative="1" as="geometry">
            <mxPoint x="510" y="410" as="sourcePoint" />
            <mxPoint x="630" y="360" as="targetPoint" />
          </mxGeometry>
        </mxCell>
        <mxCell id="szS_IiKJX-dhthdG4j-6-110" value="" style="endArrow=none;html=1;exitX=0.75;exitY=0;exitDx=0;exitDy=0;" parent="1" source="szS_IiKJX-dhthdG4j-6-24" edge="1">
          <mxGeometry width="50" height="50" relative="1" as="geometry">
            <mxPoint x="580" y="400" as="sourcePoint" />
            <mxPoint x="560" y="410" as="targetPoint" />
          </mxGeometry>
        </mxCell>
        <mxCell id="szS_IiKJX-dhthdG4j-6-111" value="" style="endArrow=none;html=1;" parent="1" edge="1">
          <mxGeometry width="50" height="50" relative="1" as="geometry">
            <mxPoint x="560" y="410" as="sourcePoint" />
            <mxPoint x="570" y="420" as="targetPoint" />
          </mxGeometry>
        </mxCell>
        <mxCell id="szS_IiKJX-dhthdG4j-6-114" value="interpretada por" style="text;html=1;strokeColor=none;fillColor=none;align=center;verticalAlign=middle;whiteSpace=wrap;rounded=0;connectable=0;" parent="1" vertex="1">
          <mxGeometry x="150" y="720" width="60" height="30" as="geometry" />
        </mxCell>
        <mxCell id="szS_IiKJX-dhthdG4j-6-115" value="&amp;nbsp;interprete de" style="text;html=1;strokeColor=none;fillColor=none;align=center;verticalAlign=middle;whiteSpace=wrap;rounded=0;" parent="1" vertex="1">
          <mxGeometry x="230" y="800" width="60" height="30" as="geometry" />
        </mxCell>
        <mxCell id="szS_IiKJX-dhthdG4j-6-119" value="ocupada por" style="text;html=1;strokeColor=none;fillColor=none;align=center;verticalAlign=middle;whiteSpace=wrap;rounded=0;" parent="1" vertex="1">
          <mxGeometry x="150" y="75" width="60" height="30" as="geometry" />
        </mxCell>
        <mxCell id="szS_IiKJX-dhthdG4j-6-120" value="ubicarse en" style="text;html=1;strokeColor=none;fillColor=none;align=center;verticalAlign=middle;whiteSpace=wrap;rounded=0;connectable=0;" parent="1" vertex="1">
          <mxGeometry x="240" y="135" width="60" height="30" as="geometry" />
        </mxCell>
        <mxCell id="szS_IiKJX-dhthdG4j-6-121" value="conformada por" style="text;html=1;strokeColor=none;fillColor=none;align=center;verticalAlign=middle;whiteSpace=wrap;rounded=0;rotation=0;connectable=0;" parent="1" vertex="1">
          <mxGeometry x="414" y="510" width="60" height="30" as="geometry" />
        </mxCell>
        <mxCell id="szS_IiKJX-dhthdG4j-6-123" value="incluido en" style="text;html=1;strokeColor=none;fillColor=none;align=center;verticalAlign=middle;whiteSpace=wrap;rounded=0;rotation=0;connectable=0;" parent="1" vertex="1">
          <mxGeometry x="490" y="740" width="60" height="30" as="geometry" />
        </mxCell>
        <mxCell id="szS_IiKJX-dhthdG4j-6-124" value="conformada por" style="text;html=1;strokeColor=none;fillColor=none;align=center;verticalAlign=middle;whiteSpace=wrap;rounded=0;rotation=55;connectable=0;" parent="1" vertex="1">
          <mxGeometry x="520" y="535" width="60" height="30" as="geometry" />
        </mxCell>
        <mxCell id="szS_IiKJX-dhthdG4j-6-125" value="incluida en" style="text;html=1;strokeColor=none;fillColor=none;align=center;verticalAlign=middle;whiteSpace=wrap;rounded=0;rotation=50;connectable=0;" parent="1" vertex="1">
          <mxGeometry x="660" y="730" width="60" height="30" as="geometry" />
        </mxCell>
        <mxCell id="szS_IiKJX-dhthdG4j-6-128" value="quien hizo" style="text;html=1;strokeColor=none;fillColor=none;align=center;verticalAlign=middle;whiteSpace=wrap;rounded=0;rotation=-15;" parent="1" vertex="1">
          <mxGeometry x="795" y="300" width="60" height="30" as="geometry" />
        </mxCell>
        <mxCell id="szS_IiKJX-dhthdG4j-6-129" value="" style="endArrow=none;html=1;exitX=0.401;exitY=-0.013;exitDx=0;exitDy=0;exitPerimeter=0;" parent="1" source="szS_IiKJX-dhthdG4j-6-2" edge="1">
          <mxGeometry width="50" height="50" relative="1" as="geometry">
            <mxPoint x="300" y="140" as="sourcePoint" />
            <mxPoint x="240" y="160" as="targetPoint" />
          </mxGeometry>
        </mxCell>
        <mxCell id="szS_IiKJX-dhthdG4j-6-130" value="" style="endArrow=none;html=1;entryX=0.57;entryY=-0.016;entryDx=0;entryDy=0;entryPerimeter=0;" parent="1" target="szS_IiKJX-dhthdG4j-6-2" edge="1">
          <mxGeometry width="50" height="50" relative="1" as="geometry">
            <mxPoint x="240" y="160" as="sourcePoint" />
            <mxPoint x="350" y="90" as="targetPoint" />
          </mxGeometry>
        </mxCell>
        <mxCell id="szS_IiKJX-dhthdG4j-6-142" value="hecha por" style="text;html=1;strokeColor=none;fillColor=none;align=center;verticalAlign=middle;whiteSpace=wrap;rounded=0;rotation=-15;connectable=0;" parent="1" vertex="1">
          <mxGeometry x="590" y="430" width="60" height="30" as="geometry" />
        </mxCell>
        <mxCell id="szS_IiKJX-dhthdG4j-6-143" value="" style="endArrow=none;html=1;entryX=-0.004;entryY=0.31;entryDx=0;entryDy=0;entryPerimeter=0;dashed=1;" parent="1" target="szS_IiKJX-dhthdG4j-6-1" edge="1">
          <mxGeometry width="50" height="50" relative="1" as="geometry">
            <mxPoint x="-160" y="100" as="sourcePoint" />
            <mxPoint x="-80" y="50" as="targetPoint" />
          </mxGeometry>
        </mxCell>
        <mxCell id="szS_IiKJX-dhthdG4j-6-146" value="" style="endArrow=none;dashed=1;html=1;" parent="1" edge="1">
          <mxGeometry width="50" height="50" relative="1" as="geometry">
            <mxPoint x="-160" y="150" as="sourcePoint" />
            <mxPoint x="-160" y="100" as="targetPoint" />
          </mxGeometry>
        </mxCell>
        <mxCell id="szS_IiKJX-dhthdG4j-6-147" value="" style="endArrow=none;dashed=1;html=1;entryX=-0.022;entryY=0.81;entryDx=0;entryDy=0;entryPerimeter=0;" parent="1" target="szS_IiKJX-dhthdG4j-6-1" edge="1">
          <mxGeometry width="50" height="50" relative="1" as="geometry">
            <mxPoint x="-160" y="150" as="sourcePoint" />
            <mxPoint x="-80" y="50" as="targetPoint" />
          </mxGeometry>
        </mxCell>
        <mxCell id="szS_IiKJX-dhthdG4j-6-148" value="" style="endArrow=none;html=1;entryX=-0.008;entryY=0.43;entryDx=0;entryDy=0;entryPerimeter=0;" parent="1" target="szS_IiKJX-dhthdG4j-6-1" edge="1">
          <mxGeometry width="50" height="50" relative="1" as="geometry">
            <mxPoint x="-60" y="100" as="sourcePoint" />
            <mxPoint x="-70" y="130" as="targetPoint" />
          </mxGeometry>
        </mxCell>
        <mxCell id="szS_IiKJX-dhthdG4j-6-149" value="" style="endArrow=none;html=1;entryX=0;entryY=0.25;entryDx=0;entryDy=0;" parent="1" target="szS_IiKJX-dhthdG4j-6-1" edge="1">
          <mxGeometry width="50" height="50" relative="1" as="geometry">
            <mxPoint x="-60" y="100" as="sourcePoint" />
            <mxPoint x="-80" y="50" as="targetPoint" />
          </mxGeometry>
        </mxCell>
        <mxCell id="szS_IiKJX-dhthdG4j-6-150" value="unida a" style="text;html=1;strokeColor=none;fillColor=none;align=center;verticalAlign=middle;whiteSpace=wrap;rounded=0;" parent="1" vertex="1">
          <mxGeometry x="-100" y="150" width="60" height="30" as="geometry" />
        </mxCell>
        <mxCell id="szS_IiKJX-dhthdG4j-6-151" value="unida a" style="text;html=1;strokeColor=none;fillColor=none;align=center;verticalAlign=middle;whiteSpace=wrap;rounded=0;" parent="1" vertex="1">
          <mxGeometry x="-120" y="70" width="60" height="30" as="geometry" />
        </mxCell>
        <mxCell id="E4MxPmM2y-Qh73wYfzmi-3" value="" style="endArrow=none;dashed=1;html=1;rounded=0;exitX=1;exitY=0.25;exitDx=0;exitDy=0;entryX=0;entryY=0.5;entryDx=0;entryDy=0;" parent="1" source="szS_IiKJX-dhthdG4j-6-24" target="szS_IiKJX-dhthdG4j-6-12" edge="1">
          <mxGeometry width="50" height="50" relative="1" as="geometry">
            <mxPoint x="750" y="360" as="sourcePoint" />
            <mxPoint x="720" y="380" as="targetPoint" />
          </mxGeometry>
        </mxCell>
        <mxCell id="E4MxPmM2y-Qh73wYfzmi-6" value="hecha por" style="text;html=1;strokeColor=none;fillColor=none;align=center;verticalAlign=middle;whiteSpace=wrap;rounded=0;rotation=0;" parent="1" vertex="1">
          <mxGeometry x="610" y="480" width="60" height="30" as="geometry" />
        </mxCell>
        <mxCell id="E4MxPmM2y-Qh73wYfzmi-7" value="" style="endArrow=none;dashed=1;html=1;rounded=0;exitX=1;exitY=0.75;exitDx=0;exitDy=0;" parent="1" source="szS_IiKJX-dhthdG4j-6-24" edge="1">
          <mxGeometry width="50" height="50" relative="1" as="geometry">
            <mxPoint x="750" y="560" as="sourcePoint" />
            <mxPoint x="960" y="480" as="targetPoint" />
          </mxGeometry>
        </mxCell>
        <mxCell id="E4MxPmM2y-Qh73wYfzmi-8" value="" style="endArrow=none;dashed=1;html=1;rounded=0;" parent="1" target="szS_IiKJX-dhthdG4j-6-13" edge="1">
          <mxGeometry width="50" height="50" relative="1" as="geometry">
            <mxPoint x="960" y="480" as="sourcePoint" />
            <mxPoint x="800" y="510" as="targetPoint" />
          </mxGeometry>
        </mxCell>
        <mxCell id="E4MxPmM2y-Qh73wYfzmi-9" value="quien hizo" style="text;html=1;strokeColor=none;fillColor=none;align=center;verticalAlign=middle;whiteSpace=wrap;rounded=0;rotation=0;" parent="1" vertex="1">
          <mxGeometry x="970" y="440" width="60" height="30" as="geometry" />
        </mxCell>
        <mxCell id="E4MxPmM2y-Qh73wYfzmi-10" value="" style="endArrow=none;html=1;rounded=0;entryX=0.578;entryY=0.997;entryDx=0;entryDy=0;entryPerimeter=0;" parent="1" target="szS_IiKJX-dhthdG4j-6-30" edge="1">
          <mxGeometry width="50" height="50" relative="1" as="geometry">
            <mxPoint x="220" y="730" as="sourcePoint" />
            <mxPoint x="240" y="720" as="targetPoint" />
          </mxGeometry>
        </mxCell>
        <mxCell id="E4MxPmM2y-Qh73wYfzmi-11" value="" style="endArrow=none;html=1;rounded=0;" parent="1" edge="1">
          <mxGeometry width="50" height="50" relative="1" as="geometry">
            <mxPoint x="210" y="715" as="sourcePoint" />
            <mxPoint x="220" y="730" as="targetPoint" />
          </mxGeometry>
        </mxCell>
        <mxCell id="E4MxPmM2y-Qh73wYfzmi-12" value="" style="endArrow=none;html=1;rounded=0;entryX=0.416;entryY=0.992;entryDx=0;entryDy=0;entryPerimeter=0;" parent="1" target="szS_IiKJX-dhthdG4j-6-24" edge="1">
          <mxGeometry width="50" height="50" relative="1" as="geometry">
            <mxPoint x="480" y="520" as="sourcePoint" />
            <mxPoint x="660" y="530" as="targetPoint" />
          </mxGeometry>
        </mxCell>
        <mxCell id="E4MxPmM2y-Qh73wYfzmi-13" value="" style="endArrow=none;html=1;rounded=0;exitX=0.25;exitY=1;exitDx=0;exitDy=0;" parent="1" source="szS_IiKJX-dhthdG4j-6-24" edge="1">
          <mxGeometry width="50" height="50" relative="1" as="geometry">
            <mxPoint x="610" y="580" as="sourcePoint" />
            <mxPoint x="480" y="520" as="targetPoint" />
          </mxGeometry>
        </mxCell>
        <mxCell id="E4MxPmM2y-Qh73wYfzmi-14" value="" style="endArrow=none;html=1;rounded=0;exitX=0.149;exitY=-0.011;exitDx=0;exitDy=0;exitPerimeter=0;" parent="1" source="szS_IiKJX-dhthdG4j-6-27" edge="1">
          <mxGeometry width="50" height="50" relative="1" as="geometry">
            <mxPoint x="610" y="810" as="sourcePoint" />
            <mxPoint x="480" y="760" as="targetPoint" />
          </mxGeometry>
        </mxCell>
        <mxCell id="E4MxPmM2y-Qh73wYfzmi-16" value="" style="endArrow=none;html=1;rounded=0;exitX=0.294;exitY=0;exitDx=0;exitDy=0;exitPerimeter=0;" parent="1" source="szS_IiKJX-dhthdG4j-6-27" edge="1">
          <mxGeometry width="50" height="50" relative="1" as="geometry">
            <mxPoint x="490" y="770" as="sourcePoint" />
            <mxPoint x="480" y="760" as="targetPoint" />
          </mxGeometry>
        </mxCell>
        <mxCell id="E4MxPmM2y-Qh73wYfzmi-21" value="" style="endArrow=none;html=1;rounded=0;exitX=0.781;exitY=1.032;exitDx=0;exitDy=0;exitPerimeter=0;" parent="1" source="szS_IiKJX-dhthdG4j-6-24" edge="1">
          <mxGeometry width="50" height="50" relative="1" as="geometry">
            <mxPoint x="610" y="630" as="sourcePoint" />
            <mxPoint x="570" y="510" as="targetPoint" />
          </mxGeometry>
        </mxCell>
        <mxCell id="E4MxPmM2y-Qh73wYfzmi-22" value="" style="endArrow=none;html=1;rounded=0;entryX=0.958;entryY=0.975;entryDx=0;entryDy=0;entryPerimeter=0;" parent="1" target="szS_IiKJX-dhthdG4j-6-24" edge="1">
          <mxGeometry width="50" height="50" relative="1" as="geometry">
            <mxPoint x="570" y="510" as="sourcePoint" />
            <mxPoint x="660" y="580" as="targetPoint" />
          </mxGeometry>
        </mxCell>
        <mxCell id="E4MxPmM2y-Qh73wYfzmi-23" value="" style="endArrow=none;html=1;rounded=0;exitX=0.147;exitY=0.005;exitDx=0;exitDy=0;exitPerimeter=0;" parent="1" source="szS_IiKJX-dhthdG4j-6-15" edge="1">
          <mxGeometry width="50" height="50" relative="1" as="geometry">
            <mxPoint x="610" y="810" as="sourcePoint" />
            <mxPoint x="680" y="780" as="targetPoint" />
          </mxGeometry>
        </mxCell>
        <mxCell id="E4MxPmM2y-Qh73wYfzmi-24" value="" style="endArrow=none;html=1;rounded=0;exitX=0.294;exitY=0;exitDx=0;exitDy=0;exitPerimeter=0;" parent="1" source="szS_IiKJX-dhthdG4j-6-15" edge="1">
          <mxGeometry width="50" height="50" relative="1" as="geometry">
            <mxPoint x="610" y="810" as="sourcePoint" />
            <mxPoint x="680" y="780" as="targetPoint" />
          </mxGeometry>
        </mxCell>
        <mxCell id="E4MxPmM2y-Qh73wYfzmi-25" value="" style="endArrow=none;html=1;rounded=0;exitX=1.013;exitY=0.409;exitDx=0;exitDy=0;exitPerimeter=0;entryX=0;entryY=0;entryDx=0;entryDy=0;" parent="1" source="szS_IiKJX-dhthdG4j-6-24" target="szS_IiKJX-dhthdG4j-6-142" edge="1">
          <mxGeometry width="50" height="50" relative="1" as="geometry">
            <mxPoint x="720" y="410" as="sourcePoint" />
            <mxPoint x="770" y="360" as="targetPoint" />
          </mxGeometry>
        </mxCell>
        <mxCell id="E4MxPmM2y-Qh73wYfzmi-26" value="" style="endArrow=none;html=1;rounded=0;" parent="1" edge="1">
          <mxGeometry width="50" height="50" relative="1" as="geometry">
            <mxPoint x="590" y="440" as="sourcePoint" />
            <mxPoint x="580" y="430" as="targetPoint" />
          </mxGeometry>
        </mxCell>
        <mxCell id="E4MxPmM2y-Qh73wYfzmi-29" value="" style="endArrow=none;html=1;rounded=0;exitX=1.017;exitY=0.632;exitDx=0;exitDy=0;exitPerimeter=0;" parent="1" source="szS_IiKJX-dhthdG4j-6-24" edge="1">
          <mxGeometry width="50" height="50" relative="1" as="geometry">
            <mxPoint x="730" y="410" as="sourcePoint" />
            <mxPoint x="590" y="480" as="targetPoint" />
          </mxGeometry>
        </mxCell>
        <mxCell id="E4MxPmM2y-Qh73wYfzmi-30" value="" style="endArrow=none;html=1;rounded=0;exitX=1.01;exitY=0.872;exitDx=0;exitDy=0;exitPerimeter=0;" parent="1" source="szS_IiKJX-dhthdG4j-6-24" edge="1">
          <mxGeometry width="50" height="50" relative="1" as="geometry">
            <mxPoint x="730" y="410" as="sourcePoint" />
            <mxPoint x="590" y="480" as="targetPoint" />
          </mxGeometry>
        </mxCell>
        <mxCell id="E4MxPmM2y-Qh73wYfzmi-31" value="" style="endArrow=none;html=1;rounded=0;entryX=0.083;entryY=-0.025;entryDx=0;entryDy=0;entryPerimeter=0;" parent="1" target="szS_IiKJX-dhthdG4j-6-24" edge="1">
          <mxGeometry width="50" height="50" relative="1" as="geometry">
            <mxPoint x="460" y="410" as="sourcePoint" />
            <mxPoint x="360" y="300" as="targetPoint" />
          </mxGeometry>
        </mxCell>
        <mxCell id="E4MxPmM2y-Qh73wYfzmi-32" value="" style="endArrow=none;html=1;rounded=0;entryX=0.171;entryY=-0.014;entryDx=0;entryDy=0;entryPerimeter=0;" parent="1" target="szS_IiKJX-dhthdG4j-6-24" edge="1">
          <mxGeometry width="50" height="50" relative="1" as="geometry">
            <mxPoint x="460" y="410" as="sourcePoint" />
            <mxPoint x="360" y="300" as="targetPoint" />
          </mxGeometry>
        </mxCell>
        <mxCell id="E4MxPmM2y-Qh73wYfzmi-33" value="" style="endArrow=none;html=1;rounded=0;exitX=1.011;exitY=0.627;exitDx=0;exitDy=0;exitPerimeter=0;" parent="1" source="szS_IiKJX-dhthdG4j-6-1" edge="1">
          <mxGeometry width="50" height="50" relative="1" as="geometry">
            <mxPoint x="170" y="180" as="sourcePoint" />
            <mxPoint x="160" y="120" as="targetPoint" />
          </mxGeometry>
        </mxCell>
        <mxCell id="E4MxPmM2y-Qh73wYfzmi-34" value="" style="endArrow=none;html=1;rounded=0;exitX=1.011;exitY=0.417;exitDx=0;exitDy=0;exitPerimeter=0;" parent="1" source="szS_IiKJX-dhthdG4j-6-1" edge="1">
          <mxGeometry width="50" height="50" relative="1" as="geometry">
            <mxPoint x="170" y="180" as="sourcePoint" />
            <mxPoint x="160" y="120" as="targetPoint" />
          </mxGeometry>
        </mxCell>
        <mxCell id="gC7zmRtma9nNrmju2rJM-2" value="NOTA:&lt;br&gt;Nos aseguraremos de que los nombres no se repitan, si varios artistas tienen una canción del mismo nombre se aclara con siglas o números" style="rounded=0;whiteSpace=wrap;html=1;" parent="1" vertex="1">
          <mxGeometry x="-50" y="670" width="140" height="130" as="geometry" />
        </mxCell>
        <mxCell id="gC7zmRtma9nNrmju2rJM-3" value="" style="endArrow=none;html=1;rounded=0;fontSize=11;entryX=0.375;entryY=1.011;entryDx=0;entryDy=0;entryPerimeter=0;exitX=0;exitY=0;exitDx=0;exitDy=0;" parent="1" source="szS_IiKJX-dhthdG4j-6-93" target="szS_IiKJX-dhthdG4j-6-2" edge="1">
          <mxGeometry width="50" height="50" relative="1" as="geometry">
            <mxPoint x="420" y="400" as="sourcePoint" />
            <mxPoint x="470" y="350" as="targetPoint" />
          </mxGeometry>
        </mxCell>
        <mxCell id="gC7zmRtma9nNrmju2rJM-4" value="" style="endArrow=none;html=1;rounded=0;fontSize=11;exitX=0.147;exitY=1.017;exitDx=0;exitDy=0;exitPerimeter=0;entryX=0;entryY=0;entryDx=0;entryDy=0;" parent="1" source="szS_IiKJX-dhthdG4j-6-2" target="szS_IiKJX-dhthdG4j-6-93" edge="1">
          <mxGeometry width="50" height="50" relative="1" as="geometry">
            <mxPoint x="420" y="400" as="sourcePoint" />
            <mxPoint x="470" y="350" as="targetPoint" />
          </mxGeometry>
        </mxCell>
      </root>
    </mxGraphModel>
  </diagram>
</mxfile>
